
<svg width="120" height="120" viewBox="0 0 400 400" fill="none" xmlns="http://www.w3.org/2000/svg">
  <!-- Gold corners -->
  <path d="M20 80 L80 80 L80 20 L50 20 Q35 20 20 35 L20 80 Z" fill="#FFD700"/>
  <path d="M320 20 L320 80 L380 80 L380 35 Q380 20 365 20 L320 20 Z" fill="#FFD700"/>
  <path d="M20 320 L20 365 Q20 380 35 380 L80 380 L80 320 L20 320 Z" fill="#FFD700"/>
  <path d="M320 380 L365 380 Q380 380 380 365 L380 320 L320 320 L320 380 Z" fill="#FFD700"/>
  
  <!-- Green diamond with eye -->
  <path d="M200 40 L320 160 L200 280 L80 160 L200 40 Z" stroke="#0B6623" stroke-width="20" fill="none"/>
  <path d="M140 160 L180 120 L220 120 L260 160 L220 200 L180 200 L140 160 Z" stroke="#0B6623" stroke-width="10" fill="none"/>
  
  <!-- Eye -->
  <circle cx="200" cy="160" r="30" stroke="#0B6623" stroke-width="15" fill="none"/>
  <circle cx="200" cy="160" r="10" fill="#0B6623"/>
</svg>
